HIERARCHY
ROOT Hips
{
	OFFSET -0.001795 -0.223333 0.028219
	CHANNELS 6 Xposition Yposition Zposition Zrotation Yrotation Xrotation 
	JOINT LeftUpLeg
	{
		OFFSET 0.069520 -0.091406 -0.006815
		CHANNELS 3 Zrotation Yrotation Xrotation
		JOINT LeftLeg
		{
			OFFSET 0.034277 -0.375199 -0.004496
			CHANNELS 3 Zrotation Yrotation Xrotation
			JOINT LeftFoot
			{
				OFFSET -0.013596 -0.397961 -0.043693
				CHANNELS 3 Zrotation Yrotation Xrotation
				JOINT LeftToe
				{
					OFFSET 0.026358 -0.055791 0.119288
					CHANNELS 3 Zrotation Yrotation Xrotation
					End Site
					{
						OFFSET 0.000000 0.000000 0.000000
					}
				}
			}
		}
	}
	JOINT RightUpLeg
	{
		OFFSET -0.067670 -0.090522 -0.004320
		CHANNELS 3 Zrotation Yrotation Xrotation
		JOINT RightLeg
		{
			OFFSET -0.038290 -0.382569 -0.008850
			CHANNELS 3 Zrotation Yrotation Xrotation
			JOINT RightFoot
			{
				OFFSET 0.015774 -0.398415 -0.042312
				CHANNELS 3 Zrotation Yrotation Xrotation
				JOINT RightToe
				{
					OFFSET -0.025372 -0.048144 0.123348
					CHANNELS 3 Zrotation Yrotation Xrotation
					End Site
					{
						OFFSET 0.000000 0.000000 0.000000
					}
				}
			}
		}
	}
	JOINT Spine
	{
		OFFSET -0.002533 0.108963 -0.026696
		CHANNELS 3 Zrotation Yrotation Xrotation
		JOINT Spine1
		{
			OFFSET 0.005487 0.135180 0.001092
			CHANNELS 3 Zrotation Yrotation Xrotation
			JOINT Spine2
			{
				OFFSET 0.001457 0.052922 0.025425
				CHANNELS 3 Zrotation Yrotation Xrotation
				JOINT Neck
				{
					OFFSET -0.002778 0.213870 -0.042857
					CHANNELS 3 Zrotation Yrotation Xrotation
					JOINT Head
					{
						OFFSET 0.005152 0.064970 0.051349
						CHANNELS 3 Zrotation Yrotation Xrotation
						End Site
						{
							OFFSET 0.000000 0.000000 0.000000
						}
					}
				}
				JOINT LeftShoulder
				{
					OFFSET 0.078845 0.121749 -0.034090
					CHANNELS 3 Zrotation Yrotation Xrotation
					JOINT LeftArm
					{
						OFFSET 0.090977 0.030469 -0.008868
						CHANNELS 3 Zrotation Yrotation Xrotation
						JOINT LeftForeArm
						{
							OFFSET 0.259612 -0.012772 -0.027456
							CHANNELS 3 Zrotation Yrotation Xrotation
							JOINT LeftHand
							{
								OFFSET 0.249234 0.008986 -0.001171
								CHANNELS 3 Zrotation Yrotation Xrotation
								End Site
								{
									OFFSET 0.000000 0.000000 0.000000
								}
							}
						}
					}
				}
				JOINT RightShoulder
				{
					OFFSET -0.081759 0.118833 -0.038615
					CHANNELS 3 Zrotation Yrotation Xrotation
					JOINT RightArm
					{
						OFFSET -0.096012 0.032551 -0.009143
						CHANNELS 3 Zrotation Yrotation Xrotation
						JOINT RightForeArm
						{
							OFFSET -0.253742 -0.013329 -0.021401
							CHANNELS 3 Zrotation Yrotation Xrotation
							JOINT RightHand
							{
								OFFSET -0.255298 0.007772 -0.005559
								CHANNELS 3 Zrotation Yrotation Xrotation
								End Site
								{
									OFFSET 0.000000 0.000000 0.000000
								}
							}
						}
					}
				}
			}
		}
	}
}
MOTION
Frames: 8
Frame Time: 0.050000
0.061302 0.958692 -0.073150 -4.322004 1.428699 9.142596 7.658249 -0.550025 -11.232837 -2.006852 0.233842 -1.711720 2.454137 9.278977 14.318365 0.000000 0.000000 0.000000 -7.013202 0.559681 -6.184163 2.393544 -0.326521 -3.874732 -5.591713 -16.212606 25.480984 0.000000 0.000000 0.000000 -9.548890 0.972768 15.682413 4.404401 -0.838274 -16.547489 2.676986 7.398281 29.316669 -3.580907 4.961949 -33.191095 0.000000 0.000000 0.000000 -18.040448 -12.687974 3.681112 -45.591765 -40.728806 7.784304 9.639867 -28.805733 -1.326106 0.000000 0.000000 0.000000 9.104459 22.782729 10.928282 63.044569 37.653212 14.009969 -13.635821 31.894942 -1.734961 0.000000 0.000000 0.000000 
0.061661 0.958622 -0.074390 -4.453454 1.620893 9.261003 7.650227 -0.565242 -11.577203 -1.754856 0.207972 -1.546830 2.388012 9.188873 14.259632 0.000000 0.000000 0.000000 -6.861581 0.576212 -6.550791 2.380033 -0.323039 -3.704878 -5.821761 -16.528611 25.907777 0.000000 0.000000 0.000000 -9.418322 0.969497 16.340404 4.555047 -0.873240 -16.636573 2.631698 7.317037 28.977931 -3.596355 4.961708 -33.329534 0.000000 0.000000 0.000000 -18.043161 -13.213299 3.946368 -44.988299 -40.713223 7.655296 10.249981 -28.471884 -1.471394 0.000000 0.000000 0.000000 9.504667 23.197220 11.248870 62.904152 38.370210 14.421208 -14.339887 30.833038 -1.861368 0.000000 0.000000 0.000000 
0.061987 0.958607 -0.075697 -4.569866 1.826045 9.474918 7.662707 -0.584698 -12.079609 -1.556995 0.184845 -1.303150 2.318318 9.102746 14.235420 0.000000 0.000000 0.000000 -6.742202 0.601958 -7.093665 2.339716 -0.313590 -3.349215 -5.956518 -16.697953 26.211728 0.000000 0.000000 0.000000 -9.362009 0.970607 16.704916 4.762227 -0.928729 -16.636781 2.584846 7.217863 28.855737 -3.589310 4.950278 -33.555975 0.000000 0.000000 0.000000 -17.917174 -13.389987 4.037900 -44.737575 -41.028191 7.718124 10.790208 -27.938863 -1.575346 0.000000 0.000000 0.000000 9.746008 23.332751 11.398226 62.992407 38.911620 14.801250 -14.936909 30.335384 -1.968495 0.000000 0.000000 0.000000 
0.062284 0.958675 -0.077001 -4.669024 2.118989 9.669073 7.675307 -0.606817 -12.590799 -1.384365 0.162665 -1.039942 2.197378 8.951411 14.222583 0.000000 0.000000 0.000000 -6.660512 0.625383 -7.631691 2.382186 -0.313051 -3.091149 -6.280068 -17.126396 26.911702 0.000000 0.000000 0.000000 -9.297450 0.966845 17.096550 4.957362 -0.979579 -16.602194 2.572829 7.119319 28.679441 -3.611151 4.958515 -33.816032 0.000000 0.000000 0.000000 -17.809449 -13.677324 4.174939 -44.265150 -41.212136 7.673339 11.300192 -27.531439 -1.681389 0.000000 0.000000 0.000000 9.872209 23.633785 11.591773 63.060774 39.528266 15.252075 -15.510962 29.820413 -2.075238 0.000000 0.000000 0.000000 
0.062649 0.958639 -0.078273 -4.714718 2.060630 9.772708 7.618384 -0.618323 -12.903327 -1.234713 0.143799 -0.813667 2.243315 9.016223 14.221808 0.000000 0.000000 0.000000 -6.664349 0.643622 -8.013414 2.604644 -0.323875 -2.719925 -6.528493 -17.468008 26.674143 0.000000 0.000000 0.000000 -9.165742 0.953673 17.308641 4.968556 -0.989325 -16.510180 2.618505 7.230640 28.630846 -3.585086 4.954544 -33.818848 0.000000 0.000000 0.000000 -17.967443 -13.657691 4.140248 -43.898530 -41.206889 7.578793 11.613125 -27.558816 -1.763504 0.000000 0.000000 0.000000 10.143710 23.785770 11.761011 63.109840 39.869593 15.480624 -15.951158 29.704598 -2.158122 0.000000 0.000000 0.000000 
0.063114 0.958593 -0.079456 -4.705658 2.235929 9.906881 7.576098 -0.637724 -13.284664 -1.209456 0.136085 -0.603865 2.170336 8.924785 14.211210 0.000000 0.000000 0.000000 -6.783447 0.654338 -8.380861 2.897331 -0.343952 -2.366402 -6.837279 -17.857968 26.585826 0.000000 0.000000 0.000000 -9.088184 0.944681 17.598500 5.082078 -1.012593 -16.588618 2.581481 7.309832 28.727680 -3.593137 4.981370 -34.152885 0.000000 0.000000 0.000000 -17.678036 -13.842636 4.203561 -43.679741 -41.573107 7.633344 12.082970 -27.607112 -1.890371 0.000000 0.000000 0.000000 10.165209 23.913878 11.862337 62.991671 40.529799 15.884625 -16.636720 29.742944 -2.311175 0.000000 0.000000 0.000000 
0.063683 0.958559 -0.080527 -4.629378 2.362100 9.884003 7.433580 -0.653565 -13.356081 -1.167833 0.131730 -0.601802 2.095847 8.828775 14.217122 0.000000 0.000000 0.000000 -6.839230 0.658351 -8.604964 2.928665 -0.342292 -2.009262 -7.131952 -18.240053 26.584207 0.000000 0.000000 0.000000 -8.938321 0.918927 17.880129 5.095709 -1.009294 -16.641973 2.592235 7.422571 28.767190 -3.606191 5.017204 -33.952458 0.000000 0.000000 0.000000 -17.915805 -13.939396 4.202726 -43.338293 -41.549442 7.532842 12.273328 -27.956746 -1.972935 0.000000 0.000000 0.000000 10.250842 23.954783 11.931745 62.814575 40.732034 15.952293 -16.986069 29.847965 -2.395956 0.000000 0.000000 0.000000 
0.064256 0.958396 -0.081503 -4.554967 2.469527 9.886126 7.278671 -0.672362 -13.524036 -1.101241 0.121654 -0.458770 2.047418 8.759091 14.168583 0.000000 0.000000 0.000000 -6.959321 0.657349 -8.763042 3.094238 -0.355423 -1.793744 -7.440708 -18.643090 26.531033 0.000000 0.000000 0.000000 -8.901696 0.910270 18.003947 5.101011 -1.020941 -16.475118 2.615247 7.539287 28.954518 -3.611966 5.047170 -34.091926 0.000000 0.000000 0.000000 -17.880843 -13.966709 4.170768 -43.300653 -42.006805 7.677854 12.679343 -28.101192 -2.090507 0.000000 0.000000 0.000000 10.083934 23.963935 11.914293 62.653052 41.305713 16.291039 -17.511204 30.043856 -2.525809 0.000000 0.000000 0.000000 
